<?xml version="1.0" standalone="no"?>
<!DOCTYPE svg PUBLIC "-//W3C//DTD SVG 20010904//EN"
 "http://www.w3.org/TR/2001/REC-SVG-20010904/DTD/svg10.dtd">
<svg version="1.0" xmlns="http://www.w3.org/2000/svg"
 width="512.000000pt" height="512.000000pt" viewBox="0 0 512.000000 512.000000"
 preserveAspectRatio="xMidYMid meet">
<metadata>
Created by potrace 1.14, written by Peter Selinger 2001-2017
</metadata>
<g transform="translate(0.000000,512.000000) scale(0.100000,-0.100000)"
fill="#000000" stroke="none">
<path d="M2428 5116 c-1 -2 -33 -6 -69 -10 -116 -11 -240 -35 -404 -80 -16 -5
-45 -16 -140 -54 -312 -124 -605 -381 -750 -655 -70 -132 -118 -282 -132 -414
-13 -120 -5 -425 11 -452 2 -3 7 -22 10 -41 12 -79 60 -221 102 -305 114 -225
306 -417 533 -530 40 -21 79 -38 85 -40 6 -1 41 -16 79 -33 200 -92 631 -238
1083 -367 179 -51 272 -89 374 -153 94 -58 110 -71 191 -153 110 -111 153
-229 148 -402 -5 -164 -68 -304 -194 -432 -128 -131 -264 -204 -465 -251 -166
-38 -476 -40 -662 -4 -359 71 -648 234 -879 496 l-37 41 -266 -266 -267 -267
93 -96 c51 -52 122 -118 158 -147 36 -28 70 -56 77 -61 6 -5 51 -35 99 -66
127 -82 272 -156 408 -209 131 -51 388 -120 487 -130 35 -4 66 -8 69 -10 30
-17 529 -27 665 -12 465 50 823 212 1106 500 204 208 343 474 375 718 3 24 9
67 13 94 12 83 5 262 -15 393 -49 327 -244 639 -513 821 -191 130 -740 337
-1345 507 -198 56 -298 94 -402 154 -201 115 -301 240 -337 415 -63 317 131
610 484 730 182 62 450 80 655 44 291 -52 569 -197 762 -399 l42 -45 268 268
267 268 -87 84 c-279 268 -756 490 -1138 530 -30 4 -62 9 -70 12 -15 6 -465
14 -472 9z"/>
</g>
</svg>
